<svg xmlns="http://www.w3.org/2000/svg" fill="none" viewBox="0 0 14 14" height="48" width="48"><path fill="#ffffff" stroke="#16a34a" stroke-linecap="round" stroke-linejoin="round" d="M1.50003 3.49998C0.808517 5.22875 0.814362 10.0084 0.936304 12.3494C0.963029 12.8625 1.39126 13.25 1.90501 13.25H8.09499C8.60874 13.25 9.03697 12.8625 9.0637 12.3494C9.18564 10.0084 9.19148 5.22875 8.49997 3.49998C8.09223 2.95631 7.08596 1.83627 5.86077 1.00761C5.33933 0.654933 4.66067 0.654933 4.13923 1.00761C2.91404 1.83627 1.90777 2.95631 1.50003 3.49998Z"></path><path fill="#dcfce7" stroke="#16a34a" stroke-linecap="round" stroke-linejoin="round" d="M8.99887 6.25H11.2574C12.053 6.25 12.7375 6.63817 12.8853 7.41997C13.112 8.61939 13.2596 10.6539 13 13.25H8.09499C8.60874 13.25 9.03697 12.8625 9.0637 12.3495C9.14234 10.8398 9.17269 8.31582 8.99887 6.25Z"></path><path stroke="#16a34a" stroke-linecap="round" stroke-linejoin="round" d="M4.02264 8H5.97737"></path><path stroke="#16a34a" stroke-linecap="round" stroke-linejoin="round" d="M4.02264 5H5.97737"></path><path fill="#ffffff" stroke="#16a34a" stroke-linecap="round" stroke-linejoin="round" d="M3.80275 11.8532V13.25H6.19724V11.8532C6.19724 11.192 5.66122 10.6559 5 10.6559C4.33877 10.6559 3.80275 11.192 3.80275 11.8532Z"></path></svg>