<?xml version="1.0" encoding="UTF-8" standalone="no"?>

<svg
   version="1.1"
   id="svg10329"
   xml:space="preserve"
   width="682.66534"
   height="682.66669"
   viewBox="0 0 682.66534 682.66669"
   xmlns="http://www.w3.org/2000/svg"
   xmlns:svg="http://www.w3.org/2000/svg"><defs
     id="defs10333"><clipPath
       clipPathUnits="userSpaceOnUse"
       id="clipPath10343"><path
         d="M 0,512 H 511.999 V 0 H 0 Z"
         id="path10341" /></clipPath></defs><g
     id="g10335"
     transform="matrix(1.3333333,0,0,-1.3333333,0,682.66667)"><g
       id="g10337"><g
         id="g10339"
         clip-path="url(#clipPath10343)"><g
           id="g10345"
           transform="translate(211.8769,154.2451)"><path
             d="m 0,0 v 50.685 h -14.138 c -7.169,0 -13.033,-5.866 -13.033,-13.034 V 0 Z"
             style="fill:#fde6bf;fill-opacity:1;fill-rule:nonzero;stroke:none"
             id="path10347" /></g><g
           id="g10349"
           transform="translate(211.8769,204.9297)"><path
             d="m 0,0 v 0 h -14.138 c -7.168,0 -13.033,-5.865 -13.033,-13.033 v -37.652 h 14.139 v 37.652 C -13.032,-5.865 -7.168,-0.001 0,0"
             style="fill:#ffcf86;fill-opacity:1;fill-rule:nonzero;stroke:none"
             id="path10351" /></g><g
           id="g10353"
           transform="translate(300.122,154.2451)"><path
             d="m 0,0 h 27.171 v 37.651 c 0,7.168 -5.864,13.034 -13.033,13.034 H 0 Z"
             style="fill:#fde6bf;fill-opacity:1;fill-rule:nonzero;stroke:none"
             id="path10355" /></g><path
           d="m 313.708,204.93 h -13.586 v -50.685 h 13.586 z"
           style="fill:#ffcf86;fill-opacity:1;fill-rule:nonzero;stroke:none"
           id="path10357" /><g
           id="g10359"
           transform="translate(174.4228,147.8603)"><path
             d="m 0,0 v -131.277 c 0,-5.016 4.067,-9.083 9.083,-9.083 H 38.008 V 9.083 H 9.083 C 4.067,9.083 0,5.017 0,0"
             style="fill:#fef1db;fill-opacity:1;fill-rule:nonzero;stroke:none"
             id="path10361" /></g><g
           id="g10363"
           transform="translate(192.873,16.584)"><path
             d="m 0,0 v 131.276 c 0,5.017 4.067,9.083 9.083,9.083 h -18.45 c -5.016,0 -9.083,-4.066 -9.083,-9.083 V 0 c 0,-5.017 4.067,-9.084 9.083,-9.084 H 9.083 C 4.067,-9.084 0,-5.017 0,0"
             style="fill:#fde6bf;fill-opacity:1;fill-rule:nonzero;stroke:none"
             id="path10365" /></g><g
           id="g10367"
           transform="translate(328.4931,156.9433)"><path
             d="M 0,0 H -28.925 V -149.443 H 0 c 5.017,0 9.083,4.067 9.083,9.083 V -9.083 C 9.083,-4.066 5.017,0 0,0"
             style="fill:#fef1db;fill-opacity:1;fill-rule:nonzero;stroke:none"
             id="path10369" /></g><path
           d="m 299.568,7.5 h 19.004 v 149.443 h -19.004 z"
           style="fill:#fde6bf;fill-opacity:1;fill-rule:nonzero;stroke:none"
           id="path10371" /><g
           id="g10373"
           transform="translate(255.999,400.5849)"><path
             d="M 0,0 C 7.051,0 13.235,-3.66 16.793,-9.175 16.736,17.358 9.241,37.763 0,37.763 -9.24,37.763 -16.735,17.358 -16.792,-9.175 -13.235,-3.66 -7.05,0 0,0"
             style="fill:#fef1db;fill-opacity:1;fill-rule:nonzero;stroke:none"
             id="path10375" /></g><g
           id="g10377"
           transform="translate(256.3281,400.5742)"><path
             d="m 0,0 c 0.959,13.686 3.964,24.996 8.067,31.569 -2.469,3.956 -5.336,6.204 -8.395,6.204 -9.241,0 -16.736,-20.404 -16.793,-46.937 3.557,5.515 9.742,9.175 16.793,9.175 C -0.218,0.011 -0.11,0.002 0,0"
             style="fill:#fde6bf;fill-opacity:1;fill-rule:nonzero;stroke:none"
             id="path10379" /></g><g
           id="g10381"
           transform="translate(255.999,371.2568)"><path
             d="m 0,0 h 0.001 c 7.698,0 14.711,-2.934 19.983,-7.742 v 18.086 c 0,11.037 -8.947,19.984 -19.984,19.984 -11.036,0 -19.984,-8.947 -19.984,-19.984 V -7.742 C -14.711,-2.934 -7.698,0 0,0"
             style="fill:#fde6bf;fill-opacity:1;fill-rule:nonzero;stroke:none"
             id="path10383" /></g><g
           id="g10385"
           transform="translate(252.8076,381.6006)"><path
             d="M 0,0 C 0,8.034 4.752,14.942 11.588,18.116 9.032,19.303 6.195,19.984 3.192,19.984 -7.845,19.984 -16.792,11.037 -16.792,0 v -18.086 c 4.533,4.135 10.355,6.878 16.792,7.566 z"
             style="fill:#ffcf86;fill-opacity:1;fill-rule:nonzero;stroke:none"
             id="path10387" /></g><g
           id="g10389"
           transform="translate(255.999,340.7851)"><path
             d="M 0,0 H 0.001 C 12.127,0 22.894,-5.819 29.665,-14.815 V 2.809 c 0,16.382 -13.281,29.663 -29.664,29.663 H 0 c -16.383,0 -29.664,-13.281 -29.664,-29.663 V -14.815 C -22.893,-5.819 -12.126,0 0,0"
             style="fill:#fef1db;fill-opacity:1;fill-rule:nonzero;stroke:none"
             id="path10391" /></g><g
           id="g10393"
           transform="translate(243.1279,343.5937)"><path
             d="m 0,0 c 0,13.465 8.976,24.828 21.268,28.45 -2.664,0.785 -5.479,1.213 -8.396,1.213 -16.383,0 -29.664,-13.28 -29.664,-29.663 v -17.624 c 4.244,5.639 10.058,10.028 16.792,12.52 z"
             style="fill:#fde6bf;fill-opacity:1;fill-rule:nonzero;stroke:none"
             id="path10395" /></g><g
           id="g10397"
           transform="translate(255.999,306.1474)"><path
             d="m 0,0 h 0.001 c 16.178,0 30.193,-9.22 37.106,-22.687 v 22.218 c 0,20.493 -16.613,37.107 -37.106,37.107 H 0 c -20.493,0 -37.106,-16.614 -37.106,-37.107 V -22.687 C -30.193,-9.22 -16.178,0 0,0"
             style="fill:#fde6bf;fill-opacity:1;fill-rule:nonzero;stroke:none"
             id="path10399" /></g><g
           id="g10401"
           transform="translate(235.6855,305.6787)"><path
             d="m 0,0 c 0,17.604 12.263,32.334 28.71,36.141 -2.699,0.625 -5.507,0.965 -8.396,0.965 C -0.179,37.106 -16.792,20.493 -16.792,0 v -22.218 c 3.758,7.322 9.627,13.372 16.792,17.384 z"
             style="fill:#ffcf86;fill-opacity:1;fill-rule:nonzero;stroke:none"
             id="path10403" /></g><g
           id="g10405"
           transform="translate(255.999,269.082)"><path
             d="M 0,0 H 0.001 C 18.624,0 34.628,-11.178 41.696,-27.186 V -2.63 c 0,23.028 -18.668,41.695 -41.695,41.695 H 0 c -23.027,0 -41.695,-18.667 -41.695,-41.695 V -27.186 C -34.627,-11.178 -18.623,0 0,0"
             style="fill:#fef1db;fill-opacity:1;fill-rule:nonzero;stroke:none"
             id="path10407" /></g><g
           id="g10409"
           transform="translate(231.0962,266.4521)"><path
             d="M 0,0 C 0,20.152 14.296,36.965 33.299,40.85 30.587,41.404 27.78,41.696 24.904,41.696 1.875,41.696 -16.792,23.028 -16.792,0 V -24.556 C -13.213,-16.45 -7.341,-9.587 0,-4.782 Z"
             style="fill:#fde6bf;fill-opacity:1;fill-rule:nonzero;stroke:none"
             id="path10411" /></g><g
           id="g10413"
           transform="translate(256,271.082)"><path
             d="M 0,0 H -0.001 C -25.167,0 -45.569,-20.402 -45.569,-45.569 V -263.582 H 45.568 V -45.569 C 45.568,-20.402 25.167,0 0,0"
             style="fill:#ffcf86;fill-opacity:1;fill-rule:nonzero;stroke:none"
             id="path10415" /></g><g
           id="g10417"
           transform="translate(271.332,268.4306)"><path
             d="m 0,0 c -4.792,1.712 -9.952,2.651 -15.332,2.651 -25.168,0 -45.569,-20.402 -45.569,-45.569 v -218.013 h 30.664 V -42.918 C -30.237,-23.131 -17.623,-6.297 0,0"
             style="fill:#ffc265;fill-opacity:1;fill-rule:nonzero;stroke:none"
             id="path10419" /></g><g
           id="g10421"
           transform="translate(174.228,147.8603)"><path
             d="m 0,0 v -131.277 c 0,-5.016 4.067,-9.083 9.083,-9.083 H 36.008 V 9.083 H 9.083 C 4.067,9.083 0,5.017 0,0 Z"
             style="fill:none;stroke:#000000;stroke-width:15;stroke-linecap:round;stroke-linejoin:round;stroke-miterlimit:10;stroke-dasharray:none;stroke-opacity:1"
             id="path10423" /></g><g
           id="g10425"
           transform="translate(255.8047,438.3476)"><path
             d="M 0,0 V 66.152"
             style="fill:none;stroke:#000000;stroke-width:15;stroke-linecap:round;stroke-linejoin:round;stroke-miterlimit:10;stroke-dasharray:none;stroke-opacity:1"
             id="path10427" /></g><g
           id="g10429"
           transform="translate(255.8047,401.5849)"><path
             d="M 0,0 C 7.051,0 13.235,-3.66 16.793,-9.175 16.736,17.358 9.24,36.763 0,36.763 -9.24,36.763 -16.736,17.358 -16.792,-9.175 -13.235,-3.66 -7.051,0 0,0 Z"
             style="fill:none;stroke:#000000;stroke-width:15;stroke-linecap:round;stroke-linejoin:round;stroke-miterlimit:10;stroke-dasharray:none;stroke-opacity:1"
             id="path10431" /></g><g
           id="g10433"
           transform="translate(255.8047,373.2568)"><path
             d="M 0,0 V 0 C 7.699,0 14.712,-2.934 19.984,-7.742 V 8.344 c 0,11.037 -8.947,19.984 -19.984,19.984 -11.037,0 -19.984,-8.947 -19.984,-19.984 V -7.742 C -14.712,-2.934 -7.699,0 0,0 Z"
             style="fill:none;stroke:#000000;stroke-width:15;stroke-linecap:round;stroke-linejoin:round;stroke-miterlimit:10;stroke-dasharray:none;stroke-opacity:1"
             id="path10435" /></g><g
           id="g10437"
           transform="translate(255.8047,342.7851)"><path
             d="M 0,0 V 0 C 12.127,0 22.893,-5.819 29.664,-14.815 V 0.809 C 29.664,17.191 16.383,30.472 0,30.472 -16.383,30.472 -29.664,17.191 -29.664,0.809 V -14.815 C -22.893,-5.819 -12.127,0 0,0 Z"
             style="fill:none;stroke:#000000;stroke-width:15;stroke-linecap:round;stroke-linejoin:round;stroke-miterlimit:10;stroke-dasharray:none;stroke-opacity:1"
             id="path10439" /></g><g
           id="g10441"
           transform="translate(255.8047,308.1474)"><path
             d="m 0,0 v 0 c 16.178,0 30.193,-9.22 37.106,-22.687 v 20.218 c 0,20.493 -16.613,37.107 -37.106,37.107 -20.494,0 -37.107,-16.614 -37.107,-37.107 V -22.687 C -30.194,-9.22 -16.178,0 0,0 Z"
             style="fill:none;stroke:#000000;stroke-width:15;stroke-linecap:round;stroke-linejoin:round;stroke-miterlimit:10;stroke-dasharray:none;stroke-opacity:1"
             id="path10443" /></g><g
           id="g10445"
           transform="translate(255.8047,271.082)"><path
             d="M 0,0 V 0 C 18.624,0 34.628,-11.178 41.696,-27.186 V -4.63 C 41.696,18.398 23.028,37.065 0,37.065 -23.028,37.065 -41.696,18.398 -41.696,-4.63 V -27.186 C -34.627,-11.178 -18.624,0 0,0 Z"
             style="fill:none;stroke:#000000;stroke-width:15;stroke-linecap:round;stroke-linejoin:round;stroke-miterlimit:10;stroke-dasharray:none;stroke-opacity:1"
             id="path10447" /></g><g
           id="g10449"
           transform="translate(210.2358,156.9433)"><path
             d="m 0,0 v 47.986 h -13.386 c -6.786,0 -12.339,-5.552 -12.339,-12.34 V 0 Z"
             style="fill:none;stroke:#000000;stroke-width:15;stroke-linecap:round;stroke-linejoin:round;stroke-miterlimit:10;stroke-dasharray:none;stroke-opacity:1"
             id="path10451" /></g><g
           id="g10453"
           transform="translate(301.374,156.9433)"><path
             d="m 0,0 h 25.725 v 35.646 c 0,6.788 -5.553,12.34 -12.34,12.34 L 0,47.986 Z"
             style="fill:none;stroke:#000000;stroke-width:15;stroke-linecap:round;stroke-linejoin:round;stroke-miterlimit:10;stroke-dasharray:none;stroke-opacity:1"
             id="path10455" /></g><g
           id="g10457"
           transform="translate(241.3056,230.9795)"><path
             d="M 0,0 V -195.373"
             style="fill:none;stroke:#000000;stroke-width:15;stroke-linecap:round;stroke-linejoin:round;stroke-miterlimit:10;stroke-dasharray:none;stroke-opacity:1"
             id="path10459" /></g><g
           id="g10461"
           transform="translate(268.2226,230.9795)"><path
             d="M 0,0 V -195.373"
             style="fill:none;stroke:#000000;stroke-width:15;stroke-linecap:round;stroke-linejoin:round;stroke-miterlimit:10;stroke-dasharray:none;stroke-opacity:1"
             id="path10463" /></g><g
           id="g10465"
           transform="translate(273.3047,7.5009)"><path
             d="m 0,0 h 28.069 v 218.012 c 0,25.167 -20.402,45.569 -45.569,45.569 -25.167,0 -45.569,-20.402 -45.569,-45.569 V 0 H -35"
             style="fill:none;stroke:#000000;stroke-width:15;stroke-linecap:round;stroke-linejoin:round;stroke-miterlimit:10;stroke-dasharray:none;stroke-opacity:1"
             id="path10467" /></g><g
           id="g10469"
           transform="translate(337.3808,107.8818)"><path
             d="m 0,0 v 39.979 c 0,5.016 -4.066,9.083 -9.083,9.083 h -26.924 v -149.443 h 26.924 c 5.017,0 9.083,4.067 9.083,9.083 L 0,-35"
             style="fill:none;stroke:#000000;stroke-width:15;stroke-linecap:round;stroke-linejoin:round;stroke-miterlimit:10;stroke-dasharray:none;stroke-opacity:1"
             id="path10471" /></g></g></g></g></svg>
