<svg xmlns="http://www.w3.org/2000/svg" version="1.1" xmlns:xlink="http://www.w3.org/1999/xlink" xmlns:svgjs="http://svgjs.com/svgjs" width="512" height="512" x="0" y="0" viewBox="0 0 512 512" style="enable-background:new 0 0 512 512" xml:space="preserve" class=""><g><path fill="#a16207" d="M8.25 432.375h496v24h-496z" data-original="#a0815c" class=""></path><circle cx="96.25" cy="176.375" r="80" fill="#22c55e" data-original="#91cc04" class=""></circle><circle cx="416.25" cy="144.375" r="80" fill="#22c55e" data-original="#91cc04" class=""></circle><path fill="#e0e0e2" d="M328.25 432.375h-144l8-24h128z" data-original="#e0e0e2" class=""></path><path fill="#c6c5ca" d="M280.25 408.375h-48l16-64h16z" data-original="#c6c5ca" class=""></path><path fill="#e0e0e2" d="M192.25 296.375h128a48 48 0 0 1-48 48h-32a48 48 0 0 1-48-48z" data-original="#e0e0e2" class=""></path><g fill="#4e901e"><path d="M416.25 384.375h32a48 48 0 0 1 48 48h-128a48 48 0 0 1 48-48zM80.25 384.375h32a48 48 0 0 1 48 48h-128a48 48 0 0 1 48-48z" fill="#a16207" data-original="#4e901e" class=""></path></g><path d="M504 424h-.58A56.086 56.086 0 0 0 448 376h-24v-76.69l21.66-21.65a8 8 0 0 0-11.32-11.32L424 276.69v-45.06a88 88 0 1 0-16 0v144.95A56.11 56.11 0 0 0 360.58 424h-26.81l-6.18-18.53A8 8 0 0 0 320 400h-33.75l-12.02-48.06A56.051 56.051 0 0 0 328 296a8 8 0 0 0-8-8h-56v-44a12 12 0 0 1 24 0v4a8 8 0 0 0 16 0v-4a27.982 27.982 0 0 0-48-19.57A27.982 27.982 0 0 0 208 244v4a8 8 0 0 0 16 0v-4a12 12 0 0 1 24 0v44h-56a8 8 0 0 0-8 8 56.051 56.051 0 0 0 53.77 55.94L225.75 400H192a8 8 0 0 0-7.59 5.47L178.23 424h-10.81A56.086 56.086 0 0 0 112 376h-8v-44.69l21.66-21.65a8 8 0 0 0-11.32-11.32L104 308.69v-45.06a88 88 0 1 0-16 0V376h-8a56.086 56.086 0 0 0-55.42 48H8a8 8 0 0 0-8 8v24a8 8 0 0 0 8 8h496a8 8 0 0 0 8-8v-24a8 8 0 0 0-8-8zM344 144a72 72 0 1 1 80 71.54V168a8.033 8.033 0 0 0-3.56-6.66l-24-16a8 8 0 0 0-8.88 13.32L408 172.28v43.26A72.083 72.083 0 0 1 344 144zm72 248h32a40.069 40.069 0 0 1 39.2 32H376.8a40.069 40.069 0 0 1 39.2-32zm-215.2-88h110.4a40.069 40.069 0 0 1-39.2 32h-32a40.069 40.069 0 0 1-39.2-32zm68.95 96h-27.5l12-48h3.5zm-71.98 16h116.46l2.67 8H195.1zM112 392a40.069 40.069 0 0 1 39.2 32H104v-32zM24 176a72 72 0 1 1 80 71.54V200a8.033 8.033 0 0 0-3.56-6.66l-24-16a8 8 0 0 0-8.88 13.32L88 204.28v43.26A72.083 72.083 0 0 1 24 176zm56 216h8v32H40.8A40.069 40.069 0 0 1 80 392zm416 56H16v-8h480z" fill="#000000" data-original="#000000"></path><circle cx="296" cy="272" r="8" fill="#000000" data-original="#000000"></circle></g></svg>