<svg xmlns="http://www.w3.org/2000/svg" fill="none" viewBox="0 0 14 14" height="48" width="48"><path fill="#dcfce7" stroke="#16a34a" d="M1.08451 8.0785C0.771404 8.43305 0.743637 8.95884 1.00672 9.35195C1.47205 10.0473 1.94379 10.7826 2.56337 11.4022C3.18295 12.0218 3.91831 12.4935 4.61363 12.9589C5.00673 13.2219 5.53253 13.1942 5.88708 12.8811C7.07474 11.8322 8.33909 10.7532 9.54616 9.54616C10.7532 8.33908 11.8322 7.07474 12.8811 5.88708C13.1942 5.53253 13.2219 5.00673 12.9589 4.61363C12.4935 3.91831 12.0218 3.18295 11.4022 2.56337C10.7826 1.94379 10.0473 1.47204 9.35195 1.00671C8.95884 0.743634 8.43305 0.771401 8.0785 1.08451C6.89083 2.13335 5.62649 3.21234 4.41942 4.41942C3.21235 5.62649 2.13336 6.89083 1.08451 8.0785Z"></path><path stroke="#16a34a" stroke-linecap="round" d="M4.41943 4.41943L6.46212 6.46212"></path><path stroke="#16a34a" stroke-linecap="round" d="M6.65932 2.36731L8.17372 3.88171"></path><path stroke="#16a34a" stroke-linecap="round" d="M2.36739 6.6593L3.88179 8.17371"></path></svg>